<svg xmlns="http://www.w3.org/2000/svg" id="canvas" viewBox="146.948 400.703 554.595 94.586"><path d="M 156.57,404.28 C 155.66 405.07, 155.29 406.06, 154.80 408.27 C 154.31 410.47, 154.26 411.90, 154.13 415.31 C 153.99 418.71, 154.23 421.09, 154.13 425.31 C 154.03 429.53, 153.93 431.95, 153.64 436.40 C 153.35 440.86, 153.08 443.24, 152.66 447.56 C 152.24 451.89, 151.96 454.09, 151.54 458.01 C 151.11 461.94, 150.86 463.81, 150.54 467.18 C 150.22 470.56, 149.92 472.10, 149.95 474.89 C 149.98 477.67, 150.18 478.91, 150.70 481.09 C 151.22 483.27, 151.57 484.15, 152.56 485.79 C 153.56 487.44, 154.14 488.16, 155.68 489.33 C 157.22 490.49, 158.16 491.03, 160.28 491.62 C 162.41 492.20, 163.66 492.35, 166.31 492.27 C 168.95 492.20, 170.45 491.88, 173.50 491.25 C 176.56 490.62, 178.26 490.01, 181.59 489.13 C 184.92 488.24, 186.76 487.71, 190.16 486.82 C 193.56 485.92, 195.34 485.46, 198.58 484.63 C 201.83 483.81, 203.44 483.48, 206.36 482.71 C 209.29 481.93, 210.66 481.59, 213.20 480.76 C 215.75 479.93, 216.91 479.48, 219.08 478.55 C 221.25 477.62, 222.22 477.14, 224.04 476.11 C 225.85 475.07, 226.68 474.57, 228.15 473.38 C 229.63 472.19, 230.31 471.55, 231.42 470.16 C 232.53 468.76, 233.03 468.00, 233.70 466.42 C 234.37 464.83, 234.66 463.96, 234.77 462.24 C 234.89 460.52, 234.86 459.51, 234.27 457.82 C 233.69 456.13, 233.18 455.14, 231.85 453.79 C 230.53 452.44, 229.60 451.79, 227.67 451.06 C 225.74 450.33, 224.54 450.05, 222.22 450.14 C 219.89 450.23, 218.46 450.49, 216.06 451.52 C 213.66 452.55, 212.26 453.41, 210.21 455.30 C 208.16 457.20, 207.11 458.53, 205.82 461.01 C 204.54 463.50, 204.02 465.04, 203.81 467.74 C 203.60 470.43, 203.79 471.99, 204.77 474.49 C 205.75 477.00, 206.68 478.31, 208.72 480.27 C 210.77 482.23, 212.17 483.12, 214.99 484.29 C 217.82 485.46, 219.57 485.73, 222.84 486.12 C 226.10 486.51, 227.89 486.41, 231.33 486.22 C 234.77 486.03, 236.59 485.79, 240.03 485.17 C 243.47 484.55, 245.26 484.13, 248.51 483.13 C 251.77 482.14, 253.36 481.49, 256.33 480.19 C 259.29 478.90, 260.83 478.28, 263.35 476.65 C 265.87 475.01, 266.98 473.96, 268.93 472.04 C 270.87 470.11, 271.69 469.03, 273.06 467.03 C 274.43 465.04, 274.94 463.95, 275.78 462.06 C 276.61 460.17, 276.85 459.14, 277.24 457.59 C 277.62 456.04, 277.72 455.27, 277.69 454.30 C 277.66 453.33, 277.39 452.94, 277.09 452.74 C 276.80 452.54, 276.26 452.81, 276.23 453.32 C 276.21 453.84, 276.22 454.38, 276.98 455.32 C 277.74 456.26, 278.46 456.81, 280.03 458.00 C 281.59 459.20, 282.77 459.88, 284.79 461.29 C 286.81 462.70, 288.13 463.56, 290.15 465.06 C 292.16 466.56, 293.28 467.39, 294.88 468.80 C 296.47 470.21, 297.19 470.96, 298.12 472.09 C 299.04 473.23, 299.37 473.71, 299.51 474.48 C 299.66 475.24, 299.53 475.41, 298.84 475.93 C 298.15 476.46, 297.51 476.60, 296.06 477.10 C 294.60 477.60, 293.55 477.91, 291.55 478.42 C 289.55 478.94, 288.25 479.25, 286.04 479.66 C 283.83 480.06, 282.51 480.18, 280.51 480.46 C 278.50 480.74, 277.43 480.78, 276.03 481.04 C 274.63 481.30, 274.23 481.36, 273.52 481.76 C 272.81 482.16, 272.69 482.63, 272.49 483.04 C 272.29 483.45, 272.56 483.75, 272.51 483.83 C 272.47 483.92, 272.36 483.34, 272.26 483.47 C 272.15 483.59, 271.86 483.92, 272.01 484.45 C 272.16 484.99, 272.24 485.57, 273.01 486.14 C 273.77 486.71, 274.26 486.97, 275.84 487.32 C 277.43 487.67, 278.64 487.86, 280.93 487.89 C 283.22 487.92, 284.71 487.84, 287.29 487.47 C 289.88 487.11, 291.40 486.90, 293.84 486.08 C 296.29 485.25, 297.61 484.72, 299.51 483.36 C 301.42 482.00, 302.32 481.11, 303.37 479.29 C 304.42 477.47, 304.73 476.31, 304.75 474.25 C 304.77 472.18, 304.41 471.05, 303.47 468.98 C 302.53 466.91, 301.69 465.89, 300.05 463.88 C 298.41 461.88, 297.29 460.86, 295.25 458.97 C 293.22 457.07, 291.96 456.05, 289.88 454.42 C 287.79 452.79, 286.70 451.92, 284.84 450.82 C 282.97 449.71, 282.14 449.27, 280.54 448.90 C 278.94 448.53, 278.17 448.61, 276.83 448.95 C 275.48 449.29, 274.74 449.79, 273.81 450.59 C 272.87 451.38, 272.65 451.88, 272.13 452.92 C 271.60 453.97, 271.62 454.51, 271.17 455.81 C 270.71 457.10, 270.55 457.90, 269.86 459.40 C 269.17 460.91, 268.83 461.76, 267.72 463.35 C 266.62 464.94, 265.96 465.80, 264.35 467.34 C 262.74 468.88, 261.80 469.62, 259.67 471.05 C 257.54 472.47, 256.29 473.21, 253.70 474.46 C 251.10 475.71, 249.64 476.37, 246.70 477.31 C 243.76 478.24, 242.12 478.63, 239.00 479.13 C 235.88 479.63, 234.16 479.80, 231.11 479.83 C 228.07 479.86, 226.48 479.72, 223.79 479.28 C 221.10 478.83, 219.79 478.41, 217.67 477.60 C 215.54 476.79, 214.58 476.33, 213.17 475.24 C 211.76 474.14, 211.18 473.47, 210.61 472.13 C 210.03 470.79, 209.98 470.02, 210.28 468.52 C 210.58 467.01, 211.08 466.11, 212.09 464.60 C 213.10 463.09, 213.91 462.20, 215.32 460.96 C 216.74 459.73, 217.69 459.16, 219.18 458.44 C 220.67 457.71, 221.52 457.53, 222.78 457.34 C 224.04 457.15, 224.60 457.26, 225.48 457.49 C 226.37 457.72, 226.68 457.97, 227.21 458.46 C 227.75 458.95, 227.91 459.27, 228.14 459.93 C 228.37 460.59, 228.42 460.97, 228.35 461.77 C 228.28 462.57, 228.16 463.02, 227.78 463.92 C 227.41 464.82, 227.16 465.34, 226.46 466.27 C 225.75 467.19, 225.36 467.65, 224.26 468.52 C 223.17 469.39, 222.50 469.79, 220.98 470.62 C 219.45 471.45, 218.59 471.88, 216.63 472.68 C 214.67 473.47, 213.58 473.80, 211.18 474.59 C 208.78 475.37, 207.47 475.76, 204.64 476.61 C 201.82 477.46, 200.24 477.96, 197.06 478.83 C 193.87 479.70, 192.07 480.18, 188.69 480.98 C 185.32 481.78, 183.46 482.24, 180.18 482.84 C 176.89 483.44, 175.14 483.60, 172.28 483.97 C 169.41 484.34, 168.04 484.46, 165.85 484.67 C 163.67 484.88, 162.81 485.03, 161.36 485.04 C 159.92 485.04, 159.49 485.05, 158.63 484.69 C 157.77 484.32, 157.54 484.15, 157.08 483.23 C 156.61 482.31, 156.49 481.76, 156.31 480.07 C 156.13 478.38, 156.22 477.30, 156.17 474.79 C 156.12 472.27, 156.00 470.76, 156.05 467.49 C 156.10 464.22, 156.18 462.33, 156.43 458.44 C 156.69 454.54, 156.91 452.34, 157.32 448.01 C 157.73 443.69, 158.02 441.29, 158.49 436.82 C 158.97 432.36, 159.24 429.90, 159.70 425.68 C 160.16 421.45, 160.54 419.10, 160.79 415.68 C 161.04 412.25, 161.23 410.81, 160.94 408.55 C 160.65 406.28, 160.24 405.20, 159.36 404.35 C 158.49 403.50, 157.48 403.50, 156.57 404.28" style="stroke: black; fill: black;"/><path d="M 406.46,426.50 C 405.69 427.29, 405.37 428.08, 405.21 430.07 C 405.06 432.06, 405.05 433.52, 405.69 436.45 C 406.34 439.38, 407.32 441.33, 408.44 444.72 C 409.55 448.11, 410.25 450.06, 411.28 453.38 C 412.31 456.69, 412.73 458.44, 413.59 461.28 C 414.45 464.12, 414.76 465.47, 415.58 467.60 C 416.40 469.72, 416.93 470.61, 417.70 471.91 C 418.46 473.21, 418.70 473.71, 419.43 474.09 C 420.15 474.46, 420.76 474.42, 421.32 473.77 C 421.87 473.12, 422.12 472.43, 422.20 470.84 C 422.28 469.24, 422.19 468.09, 421.71 465.80 C 421.23 463.51, 420.70 462.22, 419.82 459.37 C 418.94 456.53, 418.26 454.87, 417.31 451.57 C 416.37 448.27, 415.86 446.29, 415.10 442.88 C 414.34 439.47, 414.29 437.31, 413.52 434.51 C 412.75 431.71, 412.13 430.54, 411.24 428.87 C 410.35 427.19, 410.04 426.60, 409.09 426.12 C 408.13 425.65, 407.24 425.71, 406.46 426.50" style="stroke: black; fill: black;"/><path d="M 394.76,426.91 C 395.68 426.47, 395.67 425.60, 396.39 424.56 C 397.10 423.51, 397.20 422.94, 398.35 421.68 C 399.50 420.43, 400.03 419.59, 402.15 418.27 C 404.27 416.96, 405.78 416.04, 408.93 415.10 C 412.07 414.17, 414.22 413.84, 417.88 413.61 C 421.54 413.38, 423.72 413.46, 427.21 413.95 C 430.69 414.43, 432.54 414.97, 435.30 416.04 C 438.05 417.12, 439.25 418.05, 440.98 419.33 C 442.70 420.62, 443.37 421.18, 443.92 422.48 C 444.46 423.78, 444.31 424.42, 443.71 425.86 C 443.12 427.30, 442.40 428.11, 440.94 429.68 C 439.48 431.26, 438.37 432.12, 436.41 433.72 C 434.44 435.32, 432.98 436.04, 431.11 437.67 C 429.25 439.29, 428.08 440.09, 427.08 441.84 C 426.08 443.58, 425.78 444.69, 426.11 446.39 C 426.45 448.10, 426.95 449.08, 428.75 450.36 C 430.55 451.63, 431.98 452.09, 435.09 452.78 C 438.19 453.47, 440.39 453.22, 444.27 453.79 C 448.16 454.35, 450.55 454.61, 454.54 455.62 C 458.52 456.62, 460.79 457.37, 464.22 458.81 C 467.64 460.26, 469.27 461.27, 471.65 462.82 C 474.04 464.38, 474.95 465.20, 476.12 466.60 C 477.29 467.99, 477.57 468.57, 477.51 469.81 C 477.46 471.06, 477.05 471.51, 475.84 472.82 C 474.63 474.13, 473.74 474.82, 471.46 476.36 C 469.18 477.90, 467.71 479.01, 464.46 480.52 C 461.20 482.04, 459.08 482.85, 455.18 483.93 C 451.28 485.02, 448.96 485.46, 444.97 485.95 C 440.97 486.45, 438.74 486.55, 435.21 486.42 C 431.68 486.29, 429.96 485.82, 427.31 485.30 C 424.66 484.78, 423.52 484.46, 421.95 483.82 C 420.39 483.19, 419.91 482.86, 419.49 482.13 C 419.06 481.40, 419.17 481.10, 419.81 480.16 C 420.45 479.21, 421.09 478.80, 422.68 477.40 C 424.28 476.01, 425.25 474.92, 427.79 473.18 C 430.34 471.44, 432.02 470.38, 435.41 468.70 C 438.80 467.03, 440.87 466.20, 444.74 464.81 C 448.60 463.42, 450.80 462.79, 454.73 461.75 C 458.65 460.72, 460.76 460.33, 464.37 459.64 C 467.98 458.96, 469.77 458.75, 472.77 458.32 C 475.76 457.88, 477.10 457.73, 479.33 457.48 C 481.56 457.23, 482.48 457.10, 483.91 457.08 C 485.34 457.07, 485.75 457.05, 486.48 457.40 C 487.22 457.74, 487.21 458.00, 487.57 458.82 C 487.93 459.63, 487.90 460.23, 488.29 461.46 C 488.68 462.69, 488.90 463.49, 489.53 464.96 C 490.16 466.43, 490.56 467.32, 491.45 468.81 C 492.34 470.30, 492.88 471.22, 493.97 472.42 C 495.05 473.61, 495.76 474.17, 496.88 474.80 C 498.00 475.44, 498.65 475.56, 499.58 475.59 C 500.51 475.62, 501.04 475.45, 501.53 474.95 C 502.03 474.45, 502.02 473.71, 502.05 473.08 C 502.09 472.45, 501.90 472.40, 501.72 471.80 C 501.53 471.20, 501.55 470.84, 501.13 470.08 C 500.70 469.32, 500.22 468.99, 499.59 468.01 C 498.97 467.02, 498.64 466.41, 498.01 465.16 C 497.38 463.92, 497.11 463.15, 496.43 461.77 C 495.74 460.40, 495.48 459.63, 494.60 458.31 C 493.71 456.99, 493.21 456.27, 492.01 455.18 C 490.81 454.09, 490.14 453.57, 488.60 452.86 C 487.07 452.15, 486.31 451.91, 484.35 451.62 C 482.38 451.33, 481.31 451.25, 478.80 451.42 C 476.28 451.60, 474.87 451.87, 471.76 452.49 C 468.65 453.11, 466.92 453.63, 463.26 454.52 C 459.59 455.41, 457.48 455.84, 453.44 456.94 C 449.41 458.03, 447.15 458.66, 443.09 459.98 C 439.02 461.29, 436.88 462.03, 433.11 463.53 C 429.34 465.02, 427.37 465.71, 424.26 467.47 C 421.15 469.23, 419.49 470.16, 417.55 472.35 C 415.62 474.54, 415.04 476.05, 414.57 478.42 C 414.11 480.79, 414.30 482.16, 415.25 484.22 C 416.19 486.27, 417.12 487.29, 419.30 488.70 C 421.48 490.10, 422.99 490.64, 426.17 491.24 C 429.34 491.84, 431.28 491.77, 435.16 491.71 C 439.05 491.65, 441.33 491.49, 445.60 490.95 C 449.86 490.40, 452.26 489.99, 456.48 488.99 C 460.70 487.98, 462.95 487.32, 466.70 485.92 C 470.46 484.51, 472.42 483.87, 475.24 481.96 C 478.06 480.06, 479.34 478.83, 480.82 476.40 C 482.30 473.98, 482.66 472.44, 482.62 469.83 C 482.57 467.22, 482.15 465.72, 480.59 463.35 C 479.03 460.98, 477.70 459.87, 474.82 457.98 C 471.95 456.10, 469.99 455.43, 466.21 453.93 C 462.44 452.43, 460.09 451.72, 455.96 450.48 C 451.82 449.24, 449.40 448.78, 445.54 447.73 C 441.69 446.68, 439.66 445.81, 436.68 445.22 C 433.70 444.63, 432.24 444.64, 430.65 444.77 C 429.06 444.90, 428.69 445.61, 428.73 445.86 C 428.77 446.11, 429.47 446.43, 430.85 446.04 C 432.22 445.65, 433.47 445.18, 435.61 443.92 C 437.75 442.66, 439.33 441.72, 441.55 439.73 C 443.77 437.75, 445.12 436.50, 446.71 434.01 C 448.29 431.53, 449.03 430.00, 449.47 427.31 C 449.92 424.61, 449.87 423.09, 448.94 420.55 C 448.00 418.01, 447.13 416.60, 444.81 414.61 C 442.50 412.61, 440.72 411.80, 437.34 410.58 C 433.97 409.37, 431.88 409.03, 427.94 408.52 C 424.00 408.00, 421.73 407.90, 417.63 408.01 C 413.54 408.12, 411.31 408.31, 407.47 409.07 C 403.63 409.82, 401.41 410.17, 398.43 411.78 C 395.44 413.38, 394.14 414.89, 392.55 417.10 C 390.97 419.31, 390.64 420.90, 390.49 422.83 C 390.34 424.76, 390.93 425.94, 391.79 426.76 C 392.64 427.57, 393.84 427.36, 394.76 426.91" style="stroke: black; fill: black;"/><path d="M 482.24,429.79 C 482.50 428.77, 482.12 428.52, 481.82 428.70 C 481.52 428.87, 480.98 429.93, 480.74 430.67 C 480.50 431.42, 480.77 431.68, 480.62 432.43 C 480.47 433.18, 480.00 434.17, 479.98 434.43 C 479.95 434.70, 480.07 434.69, 480.52 433.76 C 480.97 432.84, 481.99 430.80, 482.24 429.79" style="stroke: black; fill: black;"/><path d="M 517.98,466.81 C 518.84 467.48, 519.71 467.55, 521.26 467.48 C 522.81 467.41, 523.81 467.15, 525.73 466.44 C 527.65 465.74, 528.91 465.14, 530.87 463.95 C 532.84 462.76, 533.88 461.95, 535.58 460.50 C 537.27 459.04, 538.16 458.30, 539.36 456.67 C 540.56 455.05, 541.15 454.15, 541.57 452.39 C 541.99 450.63, 542.01 449.54, 541.47 447.86 C 540.92 446.19, 540.32 445.21, 538.85 444.02 C 537.38 442.83, 536.27 442.29, 534.12 441.93 C 531.97 441.57, 530.56 441.63, 528.10 442.22 C 525.64 442.81, 524.17 443.41, 521.82 444.88 C 519.46 446.35, 518.11 447.39, 516.34 449.56 C 514.56 451.74, 513.69 453.19, 512.95 455.76 C 512.22 458.34, 512.16 459.91, 512.66 462.44 C 513.16 464.97, 513.77 466.30, 515.43 468.42 C 517.09 470.53, 518.32 471.59, 520.96 473.01 C 523.60 474.44, 525.38 474.90, 528.62 475.53 C 531.87 476.17, 533.72 476.14, 537.18 476.19 C 540.63 476.23, 542.50 476.14, 545.91 475.75 C 549.32 475.37, 551.10 475.10, 554.22 474.28 C 557.33 473.45, 558.92 472.92, 561.50 471.62 C 564.07 470.31, 565.21 469.42, 567.08 467.77 C 568.94 466.12, 569.77 465.12, 570.83 463.35 C 571.89 461.58, 572.42 460.34, 572.40 458.94 C 572.37 457.53, 571.63 456.68, 570.72 456.33 C 569.80 455.99, 568.65 456.25, 567.82 457.22 C 566.99 458.19, 566.53 459.32, 566.55 461.17 C 566.57 463.01, 567.02 464.46, 567.93 466.44 C 568.84 468.42, 569.68 469.69, 571.11 471.07 C 572.55 472.44, 573.62 473.08, 575.12 473.30 C 576.62 473.52, 577.61 473.11, 578.60 472.16 C 579.59 471.21, 579.96 470.23, 580.08 468.56 C 580.21 466.88, 579.95 465.73, 579.22 463.80 C 578.50 461.86, 577.57 460.72, 576.46 458.90 C 575.36 457.09, 574.60 456.07, 573.70 454.72 C 572.79 453.37, 572.34 452.83, 571.92 452.15 C 571.50 451.46, 571.35 451.42, 571.59 451.29 C 571.82 451.15, 572.02 451.37, 573.09 451.50 C 574.17 451.62, 574.97 451.79, 576.98 451.90 C 578.98 452.01, 580.35 452.05, 583.13 452.06 C 585.91 452.06, 587.65 451.87, 590.88 451.93 C 594.11 451.98, 595.97 452.12, 599.30 452.32 C 602.64 452.52, 604.41 452.71, 607.55 452.92 C 610.69 453.14, 612.28 453.37, 615.01 453.40 C 617.74 453.43, 619.02 453.34, 621.19 453.07 C 623.37 452.81, 624.38 452.73, 625.89 452.07 C 627.40 451.40, 628.07 450.92, 628.75 449.74 C 629.44 448.55, 629.61 447.55, 629.31 446.14 C 629.00 444.73, 628.50 443.73, 627.22 442.71 C 625.94 441.69, 624.87 441.28, 622.90 441.05 C 620.94 440.81, 619.63 440.96, 617.41 441.51 C 615.19 442.06, 613.87 442.56, 611.79 443.80 C 609.71 445.04, 608.58 445.87, 607.03 447.70 C 605.47 449.52, 604.68 450.70, 604.02 452.94 C 603.36 455.18, 603.25 456.58, 603.73 458.88 C 604.21 461.17, 604.79 462.43, 606.43 464.40 C 608.06 466.38, 609.26 467.42, 611.91 468.77 C 614.56 470.11, 616.34 470.49, 619.67 471.13 C 623.01 471.76, 624.93 471.81, 628.60 471.94 C 632.26 472.07, 634.31 472.02, 638.01 471.78 C 641.71 471.54, 643.60 471.28, 647.08 470.72 C 650.57 470.17, 652.36 469.86, 655.45 469.00 C 658.54 468.14, 660.04 467.65, 662.55 466.42 C 665.05 465.19, 666.13 464.39, 667.98 462.87 C 669.82 461.35, 670.62 460.52, 671.77 458.81 C 672.93 457.10, 673.26 456.07, 673.75 454.32 C 674.23 452.57, 674.24 451.62, 674.20 450.06 C 674.16 448.51, 674.07 447.52, 673.55 446.53 C 673.04 445.54, 672.40 445.13, 671.61 445.11 C 670.81 445.08, 669.98 445.65, 669.58 446.41 C 669.17 447.16, 669.07 447.85, 669.60 448.87 C 670.13 449.89, 670.78 450.41, 672.23 451.51 C 673.69 452.60, 674.85 453.09, 676.87 454.34 C 678.89 455.59, 680.19 456.36, 682.32 457.77 C 684.45 459.18, 685.69 460.04, 687.50 461.39 C 689.31 462.75, 690.21 463.46, 691.36 464.56 C 692.52 465.66, 692.93 466.12, 693.26 466.91 C 693.59 467.70, 693.53 467.92, 693.00 468.50 C 692.48 469.09, 692.02 469.27, 690.63 469.85 C 689.24 470.43, 688.24 470.71, 686.07 471.40 C 683.90 472.08, 682.49 472.61, 679.78 473.27 C 677.06 473.93, 675.42 474.34, 672.49 474.69 C 669.56 475.05, 667.86 474.93, 665.14 475.05 C 662.43 475.16, 661.01 475.23, 658.91 475.27 C 656.81 475.31, 655.93 475.18, 654.63 475.23 C 653.33 475.29, 652.98 475.31, 652.41 475.53 C 651.83 475.75, 651.89 476.13, 651.74 476.35 C 651.59 476.58, 651.87 476.65, 651.65 476.66 C 651.43 476.66, 650.91 476.24, 650.65 476.38 C 650.40 476.53, 650.27 476.83, 650.37 477.39 C 650.46 477.94, 650.47 478.49, 651.13 479.15 C 651.78 479.81, 652.17 480.13, 653.64 480.69 C 655.11 481.24, 656.14 481.61, 658.49 481.93 C 660.83 482.24, 662.40 482.33, 665.36 482.28 C 668.31 482.22, 670.07 481.98, 673.27 481.66 C 676.46 481.33, 678.25 481.21, 681.34 480.64 C 684.43 480.08, 686.09 479.84, 688.71 478.82 C 691.33 477.80, 692.62 477.10, 694.43 475.53 C 696.25 473.97, 696.98 472.94, 697.78 471.00 C 698.57 469.06, 698.68 467.89, 698.41 465.83 C 698.15 463.77, 697.64 462.71, 696.44 460.71 C 695.24 458.72, 694.29 457.74, 692.43 455.85 C 690.57 453.95, 689.31 452.97, 687.16 451.22 C 685.01 449.48, 683.74 448.58, 681.69 447.12 C 679.65 445.66, 678.68 444.81, 676.92 443.92 C 675.16 443.03, 674.34 442.70, 672.90 442.67 C 671.47 442.64, 670.81 443.06, 669.74 443.77 C 668.66 444.48, 668.05 445.27, 667.53 446.22 C 667.00 447.18, 667.04 447.69, 667.11 448.57 C 667.18 449.44, 667.72 449.75, 667.89 450.61 C 668.06 451.47, 668.16 451.91, 667.97 452.88 C 667.78 453.85, 667.68 454.42, 666.93 455.45 C 666.18 456.48, 665.66 457.01, 664.22 458.04 C 662.78 459.07, 661.86 459.61, 659.75 460.61 C 657.64 461.60, 656.40 462.13, 653.67 463.00 C 650.94 463.87, 649.29 464.35, 646.09 464.94 C 642.89 465.53, 641.10 465.80, 637.68 465.96 C 634.26 466.13, 632.30 466.09, 629.00 465.77 C 625.71 465.44, 623.98 465.08, 621.20 464.34 C 618.43 463.59, 617.15 462.94, 615.14 462.05 C 613.12 461.16, 612.26 460.77, 611.15 459.88 C 610.04 458.99, 609.81 458.57, 609.59 457.62 C 609.37 456.67, 609.55 456.13, 610.06 455.13 C 610.58 454.12, 611.08 453.52, 612.16 452.61 C 613.23 451.69, 614.03 451.19, 615.43 450.56 C 616.83 449.92, 617.77 449.67, 619.17 449.42 C 620.57 449.16, 621.31 449.34, 622.41 449.28 C 623.51 449.23, 623.94 449.36, 624.68 449.14 C 625.42 448.92, 625.78 448.58, 626.11 448.18 C 626.44 447.77, 626.62 447.40, 626.33 447.11 C 626.04 446.82, 625.76 446.80, 624.66 446.73 C 623.55 446.67, 622.71 446.81, 620.81 446.80 C 618.90 446.79, 617.71 446.72, 615.13 446.66 C 612.55 446.60, 610.99 446.63, 607.91 446.49 C 604.84 446.36, 603.07 446.27, 599.76 445.99 C 596.45 445.71, 594.61 445.50, 591.35 445.10 C 588.09 444.70, 586.39 444.23, 583.45 444.00 C 580.51 443.78, 579.07 443.69, 576.65 443.98 C 574.24 444.28, 573.12 444.55, 571.39 445.47 C 569.66 446.38, 568.97 447.13, 568.02 448.56 C 567.06 449.99, 566.83 450.86, 566.62 452.60 C 566.41 454.35, 566.58 455.30, 566.96 457.30 C 567.34 459.31, 567.79 460.52, 568.52 462.63 C 569.26 464.74, 569.63 466.12, 570.64 467.85 C 571.65 469.59, 572.38 470.44, 573.57 471.29 C 574.75 472.15, 575.59 472.30, 576.57 472.12 C 577.54 471.93, 578.07 471.41, 578.44 470.36 C 578.81 469.30, 578.67 468.41, 578.40 466.84 C 578.13 465.26, 577.74 464.16, 577.08 462.48 C 576.41 460.81, 576.03 459.74, 575.07 458.47 C 574.10 457.20, 573.46 456.67, 572.26 456.13 C 571.06 455.59, 570.16 455.56, 569.06 455.77 C 567.96 455.99, 567.45 456.35, 566.74 457.21 C 566.03 458.07, 566.24 458.90, 565.50 460.06 C 564.75 461.22, 564.41 461.90, 563.03 463.02 C 561.64 464.14, 560.68 464.67, 558.58 465.66 C 556.47 466.65, 555.16 467.22, 552.49 467.98 C 549.81 468.74, 548.22 469.13, 545.21 469.47 C 542.19 469.80, 540.42 469.83, 537.40 469.65 C 534.38 469.48, 532.75 469.20, 530.11 468.58 C 527.46 467.95, 526.16 467.42, 524.18 466.55 C 522.20 465.67, 521.32 465.26, 520.21 464.22 C 519.10 463.18, 518.83 462.59, 518.62 461.33 C 518.41 460.08, 518.55 459.29, 519.18 457.93 C 519.82 456.56, 520.46 455.76, 521.80 454.51 C 523.13 453.25, 524.18 452.58, 525.86 451.65 C 527.53 450.72, 528.61 450.34, 530.16 449.84 C 531.71 449.35, 532.51 449.31, 533.62 449.17 C 534.74 449.04, 535.13 449.10, 535.72 449.16 C 536.32 449.23, 536.49 449.25, 536.61 449.51 C 536.72 449.78, 536.71 449.93, 536.29 450.48 C 535.88 451.04, 535.53 451.49, 534.53 452.29 C 533.53 453.10, 532.81 453.65, 531.28 454.52 C 529.75 455.38, 528.71 455.74, 526.88 456.62 C 525.05 457.50, 523.78 457.93, 522.14 458.92 C 520.51 459.91, 519.75 460.53, 518.71 461.57 C 517.68 462.61, 517.12 463.07, 516.98 464.12 C 516.83 465.16, 517.13 466.14, 517.98 466.81" style="stroke: black; fill: black;"/></svg>